<svg width="9" height="9" viewBox="0 -36 6.75 6.75" xmlns="http://www.w3.org/2000/svg" version="1.1"><path d="m6.7165-34.765-.68645-.68645c-.044691-.04463-.11709-.04463-.16178 0l-.68645.68645c-.021452.02145-.033519.05056-.033519.08089v4.1187c0 .44234.35852.80086.80086.80086.44233 0 .80086-.35852.80086-.80086v-4.1187c0-.03033-.012066-.05944-.033518-.08089zm-.76733-.44379.41027.41027h-.82053zm-.11441.63908v3.5466h-.45763v-3.5466zm.22882 0h.45763v3.5466h-.45763zm-.11441 4.5763c-.31579-.00039-.57165-.25625-.57204-.57204v-.22882h1.1441v.22882c-.00039.31579-.25625.57165-.57204.57204zm-4.3474-3.2034h2.517c.063182 0 .11441-.05123.11441-.11441v-1.1441c0-.06318-.051226-.11441-.11441-.11441h-2.517c-.063182 0-.11441.05123-.11441.11441v1.1441c0 .06318.051226.11441.11441.11441zm.11441-1.1441h2.2882v.91526h-2.2882zm2.9746-1.1441h-3.8899c-.4421.000503-.80036.35876-.80086.80086v4.1187c.00050277.4421.35876.80036.80086.80086h3.8899c.063182 0 .11441-.05123.11441-.11441v-5.4916c0-.06318-.051226-.11441-.11441-.11441zm-.11441 4.1187h-3.4322v-3.8899h3.4322zm-4.3475.24028v-3.5581c.00039111-.31579.25625-.57165.57204-.57204h.11441v3.8899h-.11441c-.027484 0-.054914.0015-.082287.0042-.00972.001-.018938.003-.028435.0044-.017318.0024-.034355.0044-.051505.008-.011452.0023-.022067.0057-.033183.0085-.014636.0037-.029495.0069-.043908.0114-.011452.0037-.022903.0086-.034914.01285-.012011.0042-.026312.009-.038992.01441-.012737.0054-.022903.01145-.035027.01693-.012122.0055-.023798.01145-.03525.01726-.011452.0059-.022849.01363-.033742.02061-.010893.007-.021954.0129-.032513.02-.010502.0071-.021284.01592-.031898.02391-.01067.008-.02039.01475-.03.0229-.009609.0081-.019552.0176-.029384.02665-.009832.009-.01877.0167-.027709.02564-.001005.0012-.00229.0026-.003296.0032zm.57204 1.1326c-.31568-.000559-.57148-.25636-.57204-.57204.0003909-.31579.25625-.57165.57204-.57204h3.7755v.45763h-3.7755v.22882h3.7755v.45763z" fill="#eee" stroke-width="1"/></svg>
