<svg version="1.1" viewBox="0 0 137.86 137.86" xmlns="http://www.w3.org/2000/svg">
 <g transform="translate(-36.071 -79.571)">
  <rect transform="rotate(7.9482)" x="63.455" y="71.483" width="122.14" height="122.14" fill="#1a1a1a" style="paint-order:normal"/>
  <path d="m123.42 167.94h3.7884l16.1-38.883h-4.2093l-13.733 34.043-13.68-34.043h-4.2619zm-36.154-39.567c-11.155 0-20.573 9.1026-20.573 19.889 0 11.312 9.1552 20.362 20.625 20.362 11.207 0 20.468-9.1026 20.468-20.099 0-11.102-9.2604-20.152-20.52-20.152zm0 3.5779c9.1026 0 16.574 7.5241 16.574 16.627 0 8.9973-7.5241 16.469-16.521 16.469-9.2604 0-16.679-7.4715-16.679-16.679 0-8.8921 7.6293-16.416 16.627-16.416z" fill="#ff8080" stroke="#ff8080" stroke-linecap="square" stroke-width="6.9"/>
 </g>
</svg>
