<svg version="1.1" viewBox="0 0 512 512" xmlns="http://www.w3.org/2000/svg">
 <g transform="translate(0 215)" fill="#ececec" stroke-width="0">
  <circle cx="207.21" cy="192.98" r="7"/>
  <circle cx="201.79" cy="172.69" r="7"/>
  <circle cx="196.37" cy="152.4" r="7"/>
  <circle cx="190.95" cy="132.11" r="7"/>
  <circle cx="185.53" cy="111.82" r="7"/>
  <circle cx="180.11" cy="91.534" r="7"/>
  <circle cx="174.69" cy="71.246" r="7"/>
  <circle cx="169.27" cy="50.958" r="7"/>
  <circle cx="163.85" cy="30.67" r="7"/>
  <circle cx="158.43" cy="10.381" r="7"/>
  <circle cx="153.01" cy="-9.9071" r="7"/>
  <circle cx="147.59" cy="-30.195" r="7"/>
  <circle cx="142.16" cy="-50.484" r="7"/>
  <circle cx="136.74" cy="-70.772" r="7"/>
  <circle cx="131.32" cy="-91.06" r="7"/>
  <circle cx="125.9" cy="-111.35" r="7"/>
  <circle cx="120.48" cy="-131.64" r="7"/>
  <circle cx="391.57" cy="-131.81" r="7"/>
  <circle cx="386.14" cy="-111.53" r="7"/>
  <circle cx="380.72" cy="-91.237" r="7"/>
  <circle cx="375.3" cy="-70.949" r="7"/>
  <circle cx="369.88" cy="-50.661" r="7"/>
  <circle cx="364.46" cy="-30.373" r="7"/>
  <circle cx="359.04" cy="-10.084" r="7"/>
  <circle cx="353.62" cy="10.204" r="7"/>
  <circle cx="348.2" cy="30.492" r="7"/>
  <circle cx="342.78" cy="50.781" r="7"/>
  <circle cx="337.36" cy="71.069" r="7"/>
  <circle cx="331.94" cy="91.357" r="7"/>
  <circle cx="326.52" cy="111.65" r="7"/>
  <circle cx="321.1" cy="131.93" r="7"/>
  <circle cx="315.68" cy="152.22" r="7"/>
  <circle cx="310.25" cy="172.51" r="7"/>
  <circle cx="304.83" cy="192.8" r="7"/>
  <circle transform="rotate(4.665)" cx="442.18" cy="20.045" r="7"/>
  <circle transform="rotate(4.665)" cx="440.97" cy="40.998" r="7"/>
  <circle transform="rotate(4.665)" cx="437.39" cy="61.678" r="7"/>
  <circle transform="rotate(4.665)" cx="431.48" cy="81.817" r="7"/>
  <circle transform="rotate(4.665)" cx="423.3" cy="101.14" r="7"/>
  <circle transform="rotate(4.665)" cx="412.97" cy="119.41" r="7"/>
  <circle transform="rotate(4.665)" cx="400.64" cy="136.39" r="7"/>
  <circle transform="rotate(4.665)" cx="386.43" cy="151.84" r="7"/>
  <circle transform="rotate(4.665)" cx="370.56" cy="165.58" r="7"/>
  <circle transform="rotate(4.665)" cx="353.23" cy="177.42" r="7"/>
  <circle transform="rotate(4.665)" cx="334.66" cy="187.19" r="7"/>
  <circle transform="rotate(4.665)" cx="315.1" cy="194.79" r="7"/>
  <circle transform="rotate(4.665)" cx="294.8" cy="200.11" r="7"/>
  <circle transform="rotate(4.665)" cx="274.02" cy="203.07" r="7"/>
  <circle transform="rotate(4.665)" cx="253.04" cy="203.65" r="7"/>
  <circle transform="rotate(4.665)" cx="232.13" cy="201.85" r="7"/>
  <circle transform="rotate(4.665)" cx="211.56" cy="197.68" r="7"/>
  <circle transform="rotate(4.665)" cx="191.6" cy="191.18" r="7"/>
  <circle transform="rotate(4.665)" cx="172.53" cy="182.42" r="7"/>
  <circle transform="rotate(4.665)" cx="154.58" cy="171.54" r="7"/>
  <circle transform="rotate(4.665)" cx="137.99" cy="158.7" r="7"/>
  <circle transform="rotate(4.665)" cx="122.96" cy="144.04" r="7"/>
  <circle transform="rotate(4.665)" cx="109.7" cy="127.78" r="7"/>
  <circle transform="rotate(4.665)" cx="98.363" cy="110.11" r="7"/>
  <circle transform="rotate(4.665)" cx="89.114" cy="91.274" r="7"/>
  <circle transform="rotate(4.665)" cx="82.103" cy="71.492" r="7"/>
  <circle transform="rotate(4.665)" cx="77.406" cy="51.037" r="7"/>
  <circle transform="rotate(4.665)" cx="75.072" cy="30.18" r="7"/>
  <circle transform="rotate(4.665)" cx="75.118" cy="9.1924" r="7"/>
  <circle transform="rotate(4.665)" cx="77.524" cy="-11.657" r="7"/>
  <circle transform="rotate(4.665)" cx="82.308" cy="-32.091" r="7"/>
  <circle transform="rotate(4.665)" cx="89.395" cy="-51.846" r="7"/>
  <circle transform="rotate(4.665)" cx="98.714" cy="-70.651" r="7"/>
  <circle transform="rotate(4.665)" cx="401.09" cy="-95.742" r="7"/>
  <circle transform="rotate(4.665)" cx="413.36" cy="-78.721" r="7"/>
  <circle transform="rotate(4.665)" cx="423.61" cy="-60.406" r="7"/>
  <circle transform="rotate(4.665)" cx="431.72" cy="-41.046" r="7"/>
  <circle transform="rotate(4.665)" cx="437.56" cy="-20.888" r="7"/>
  <circle transform="rotate(4.665)" cx="441.05" cy="-.19316" r="7"/>
 </g>
</svg>
