<svg version="1" xmlns="http://www.w3.org/2000/svg" width="933.333" height="933.333" viewBox="0 0 700.000000 700.000000"><path d="M85.9.5c-.1.3-.2 1.3-.4 2.2-.1 1-.4 3.4-.8 5.3-.6 3.3-3.9 27-5.2 37-.3 2.5-1 7.2-1.5 10.5s-1.2 8-1.5 10.5c-.3 2.5-1 7.9-1.6 12-.6 4.1-1.2 8.4-1.4 9.5-.1 1.1-.5 4.5-.9 7.5s-.9 6.8-1.2 8.5c-1.1 6.7-1.3 8.2-1.9 13.4-.4 3-.8 6.2-1 7.1-.2.9-.6 4.1-1 7.1s-.8 5.6-1 5.9c-.2.3-.6 3.9-1 8s-.8 7.7-1 8c-.2.3-.6 3-1 6-.3 3-.8 6.2-1 7-.2.8-.7 4-1 7-.3 3-.8 6.6-1 8-.2 1.4-.6 4.5-1 7-.3 2.5-1.4 10.6-2.5 18-1 7.4-2.2 15.7-2.6 18.5-.3 2.7-.8 5.7-.9 6.6-.2.9-.6 4-1 7-.3 3-1.2 9.4-2 14.4-.7 4.9-1.7 11.5-2.1 14.5-1.1 9.2-1.7 12.9-3.9 28.5-1.7 11.5-4.4 31.4-5.1 36.5-.2 1.9-.8 6.4-1.4 10-.5 3.6-1.2 8.5-1.5 11-.3 2.5-1 7.2-1.5 10.5s-1.2 7.6-1.4 9.5c-.6 4.8-4.6 33.9-5.1 37-.2 1.4-.9 6.1-1.5 10.6-.6 4.4-1.2 8.9-1.4 10-.2 1-.7 4.5-1.1 7.8-.3 3.2-.8 6.8-1 8-.3 1.8-1.3 8.8-3 20.6-.2 1.4-.7 5-1 8-.4 3-.9 6.2-1 7-.1.8-.6 4-1 7s-.9 6.4-1.1 7.5c-.2 1.1-.6 4-.9 6.5-.3 2.5-.7 5.6-1 7-.2 1.4-.6 4.7-1 7.5-.3 2.7-.8 5.7-1 6.5-.2.8-.6 4-1 7-.3 3-.7 6.6-1 8-.2 1.4-.9 6.1-1.5 10.5s-1.2 9.1-1.4 10.5c-.6 3.5-2.1 13.8-3.1 22-.8 6.1-1.3 9.8-2 14.5-2.3 15.8-2.4 17-1.4 17.6.6.3 3.6.9 6.7 1.3 3.2.4 6.8.8 8.2 1 2.6.4 31.2 4.4 36.5 5.1 7.9 1.1 33.3 4.6 36 5 1.7.3 9.8 1.4 18 2.5 8.3 1.2 16.1 2.3 17.5 2.5 1.4.2 4.3.7 6.5 1 16.4 2.1 20.9 2.7 22.9 3.1 1.1.2 5.6.8 10 1.4 4.5.6 9.3 1.3 10.7 1.6 1.5.2 4.7.6 7 .9 2.4.3 5.5.8 6.9 1 1.4.2 9.5 1.3 18 2.5 8.5 1.1 20.2 2.8 26 3.6 5.8.8 12.3 1.8 14.5 2 2.2.3 5.1.7 6.5 1 1.4.2 6.3.9 11 1.5s9.4 1.3 10.5 1.4c1.1.2 5.8.8 10.5 1.5 4.7.6 9.6 1.3 11 1.5 1.4.2 4.3.7 6.5.9 2.2.3 5.6.8 7.5 1 8.4 1.3 24.8 3.6 28.5 4 4.5.6 17.7 2.5 21.5 3.1 1.4.2 6.3.9 11 1.5s9.6 1.3 11 1.5c1.4.2 4.8.7 7.5 1 2.8.4 6.1.8 7.5 1 1.4.2 7.5 1.1 13.5 2 14.5 2.1 17.5 2.5 20.5 2.9 1.4.2 4.8.7 7.5 1.1 2.8.3 6.4.8 8 1.1 1.7.2 9.5 1.3 17.5 2.4 8 1.2 16.1 2.3 18 2.5 7 .9 18.7 2.6 20.6 2.9 2 .4 7.7 1.1 15.4 2.1 2.5.3 5.6.8 7 1 1.4.3 4.8.7 7.5 1 2.8.3 5.7.8 6.5 1 .8.2 4 .7 7 1 3 .3 6.6.8 8 1 4.3.8 8.2 1.4 17 2.5 8.1 1 12.5 1.6 18 2.4 1.4.2 4.8.7 7.5 1.1 2.8.3 6.6.9 8.5 1.1 1.9.3 4.7.7 6.2 1 3.2.6 3.4-.2 5.3-16.1.4-2.8 1-7.5 1.5-10.5s1.2-7.8 1.5-10.5c.6-4.9 5-36.5 6-43.5.3-1.9.8-5.3 1.1-7.5.2-2.2.7-5.1.9-6.5.2-1.4.7-4.8 1-7.5.4-2.8.8-6.1 1-7.5.2-1.4.6-4.3 1-6.5.3-2.3.7-5 .9-6 .2-1.1.7-4.9 1.2-8.5.4-3.6.8-6.7.9-7 .1-.3.5-3.4.9-7 .5-3.6 1-7.4 1.2-8.5.2-1.1.6-4 .9-6.5.3-2.5.8-5.6 1-7 .2-1.4.7-4.3.9-6.5.5-3.5 3.1-21.8 4.1-28.5.2-1.4.6-4.8 1-7.5.3-2.8 1-7.7 1.5-11 1-6.5 1.7-11.4 2.6-18.5.4-3.9 1.2-9.4 2.9-20 .2-1.4.7-4.9 1-7.9.4-3 .8-6.1 1-7 .1-.9.6-4.5 1-8.1.4-3.6.8-6.7 1-7 .2-.3.6-3.2.9-6.5.4-3.3.9-6.7 1.1-7.5.2-.8.6-3.8 1-6.5.3-2.8.7-6.1 1-7.5.2-1.4.7-4.5 1-7 .2-2.5.6-5.4.9-6.5.2-1.1.7-4.9 1.1-8.5.4-3.6.8-6.7 1-7 .1-.3.6-3.2.9-6.5.4-3.3 1.1-8.5 1.6-11.5s1.2-7.8 1.5-10.5c.4-2.8.8-6.1 1-7.5.2-1.4.7-4.8 1-7.5.3-2.8.8-6.1 1-7.5.8-4.4 1.4-8.3 2.5-17s1.7-12.6 2.5-17c.2-1.4.7-4.8 1-7.5.3-2.8.8-6.5 1.1-8.3.2-1.7.6-4.7.8-6.5.8-6.1 1.9-13.2 2.2-15.1.2-1.1.8-5.6 1.4-10 .6-4.5 2.2-15.8 3.5-25.1 1.3-9.4 2.7-19.3 3.1-22 .3-2.8.8-5.8 1-6.9.2-1 .6-4.4.9-7.5.4-3.1.8-6.3 1-7.1.2-.8 1.1-6.9 2-13.5.8-6.6 1.7-12.9 1.9-14 .2-1.1.7-4.7 1.1-8 .4-3.2.8-6.7 1-7.6 1-5.3 2.5-16.6 2.8-21.8.2-1.7-.4-2.5-1.8-2.7-4.9-.7-11.3-1.6-14.3-1.9-1.8-.2-4.5-.6-6-.9-1.5-.3-4.5-.8-6.7-1-8.2-1-36.4-4.9-43.5-6.1-2.2-.3-10.2-1.4-15.5-2-2.1-.3-9.4-1.4-13.5-2-1.4-.2-6.3-.9-11-1.5-8.7-1.1-12.6-1.7-17-2.5-1.4-.2-4.7-.7-7.5-1-5.2-.6-15.5-2-29-4-2.2-.3-5.6-.8-7.5-1.1-1.9-.2-6.4-.9-10-1.4-3.6-.5-8.7-1.2-11.5-1.5-2.7-.3-5.9-.8-7-1-1.1-.2-4.2-.7-7-1-8.2-1-11.7-1.5-14.9-2.1-2.5-.4-37.5-5.2-50.6-6.9-1.9-.3-4.6-.7-6-1-1.4-.2-4.9-.7-7.9-1-3-.4-6.3-.9-7.5-1.1-1.2-.2-8.8-1.3-17.1-2.4-8.2-1.1-16.1-2.2-17.5-2.4-2.4-.4-9.1-1.3-15.5-2.1-3.9-.5-11.2-1.6-13.3-1.9-2.2-.4-9.7-1.5-14.7-2.2-2.2-.2-5.6-.7-7.5-.9-1.9-.3-4.6-.7-6-.9-1.4-.3-4.7-.8-7.5-1.1-2.7-.3-7.7-1-11-1.5s-8.2-1.2-11-1.5c-2.7-.4-7.7-1-11-1.5s-8.2-1.2-11-1.6c-2.7-.3-5.7-.8-6.5-.9-.9-.2-4.3-.6-7.5-1-3.3-.4-6.9-.9-8-1.1-1.1-.2-8.7-1.3-17-2.5-8.2-1.1-16.3-2.2-18-2.4-1.6-.3-7.9-1.2-14-2-6-.9-12.6-1.8-14.5-2.1-1.9-.2-5.3-.7-7.5-.9-2.2-.3-5.1-.7-6.5-1-1.4-.2-4.3-.7-6.5-.9-2.2-.3-10.3-1.4-18-2.5-7.7-1.2-16-2.3-18.5-2.6-3.8-.5-12.4-1.7-28.7-4-1.8-.3-3.4-.3-3.4 0z"/></svg>