<?xml version="1.0" encoding="UTF-8"?>
<svg version="1.1" viewBox="0 0 350 350" xmlns="http://www.w3.org/2000/svg">
 <title>okitavera-logo</title>
 <desc>Created with Sketch.</desc>
 <rect width="350" height="350" ry="175" fill="#f2f2f2"/>
 <g transform="matrix(.78437 0 0 .78437 37.735 37.735)" fill="#0d0d0d">
  <g stroke-width="2.7435" aria-label="V">
   <path d="m274.5 190.83v6.4837h-6.698l-30.168 73.517h-12.753l-30.168-73.517h-7.5553v-6.4837h37.509v6.4837h-7.7697l21.594 52.995 21.755-52.995h-9.538v-6.4837zm-157.43-37.912q9.8643 0 14.667-8.3149 4.803-8.3149 4.803-25.41 0-17.146-4.803-25.461-4.803-8.3149-14.667-8.3149-9.8126 0-14.667 8.4182-4.803 8.3666-4.803 25.358 0 16.94 4.803 25.358 4.8547 8.3666 14.667 8.3666zm0 6.2491q-19.47 0-30.522-10.639-11.052-10.639-11.052-29.335t11.052-29.335q11.104-10.691 30.522-10.691 19.47 0 30.522 10.639 11.052 10.639 11.052 29.386 0 18.696-11.104 29.335-11.052 10.639-30.471 10.639z" fill="#0d0d0d" stroke-width="2.7435"/>
  </g>
  <rect transform="rotate(45)" x="245.37" y="-133.41" width="4.2327" height="266.82"/>
 </g>
</svg>
