<svg viewBox="0 0 106.95 49.869">
 <defs>
  <clipPath id="letterclip">
   <path d="m133.82 167.13q-2.3264 2.7178-3.544 2.3916-1.348-.36962-1.0219-2.7178.30439-2.2612 1.7394-4.4354 1.435-2.196 2.783-2.196.28264 0 .52181.10871.8262.32613 1.522 2.0003.47833-.93491 1.0654-2.022.17394-.1522.4131-.087.26091.0652.43484.28265.19568.21742.0652.36961-.71749.91318-2.0655 3.9136-1.3263 2.9787-1.6524 4.6963-.13046.52181-.0652.76097.0652.23917.17394.32614.10871.10871.34787 0 .23917-.087.45659-.21742.21742-.13046.52181-.36962 1.1958-.93492 3.4788-4.0223.5653-.69575 1.435-1.9133.89143-1.2176 1.5437-1.8916.65226-.67401 1.7394-1.4567 2.87-2.0438 5.9574-2.5221 1.9351-.28265 3.5657.52181 1.6524.78272 2.3699 2.2829.67401 1.5002.23916 3.2613-.4131 1.6524-1.8046 2.7613-1.3698 1.0871-3.0004 1.2393-1.1741.10871-2.1742-.34787-1.0001-.45659-1.5872-1.4785-.63052-1.1523-.23916-2.7395.17394-1.0871.63052-1.3045.32613-.15219.43484.19568.1522.54356-.63052 1.0871-.0435.0217-.10871.0652-.34787 1.3915.13045 2.3699.91318 1.935 3.544 1.6959 1.5437-.1522 2.8265-1.1088 1.2828-.9784 1.6742-2.5221.65227-2.696-1.2176-4.2615-1.8481-1.5872-4.6311-1.1741-3.7179.56529-6.3922 2.696-.34787.28265-.71749.65226-.34787.34788-.5653.5653-.19568.21742-.58704.73923-.39135.52182-.47832.63053-.087.10871-.5653.78272-.45659.65226-.47833.674-.36962.54356-.76097 1.0436-.36962.50007-.82621 1.1088-.45658.58704-.89143 1.0871-.43484.47833-.89143.95666-.45658.47832-.86968.80446-.41311.32613-.78272.50007-.36962.19568-.67401.17393-.30439-.0217-.50007-.28264-.71749-.91318.10871-3.6744zm1.7394-4.3267q-.23916-.67401-.63052-1.261-.36962-.60879-.67401-.78272-.80446-.45659-2.1742 1.6959-1.3915 2.1742-1.9351 4.5006-.54355 2.196.43484 2.1307.0217 0 .0435 0 .69575-.0652 1.7829-1.0654.47833-.43485 1.7611-1.9785.60879-1.6524 1.3915-3.2396zm-7.9855-1.7829q-.71749.86969-2.0655 3.8701-1.3263 3.0004-1.6524 4.7398-.23917 1.1523.28265 1.1523.52181 0 1.1523-.674 2.109-2.0438 5.2181-6.6096.13045-.17394.28264-.0652.17394.10871.087.28264-1.8698 2.783-3.0656 4.305-3.37 4.1962-4.3267 2.9569-.30439-.39136-.34787-1.1523-.0217-.73924.21742-1.6524.23916-.93491.56529-1.8916.34788-.9784.80446-2.0003.47833-1.0436.84795-1.8046.39136-.78272.76098-1.4785-1.0436.43484-1.6524.1522-.4131.60878-.89143 1.3045-.45659.69575-.73923 1.1306-.26091.4131-.32614.50007-.15219.19568-.30439.0435-.15219-.10872-.0435-.3044.0217-.0435.30439-.47832.28265-.43485.73923-1.1523.45659-.71749.91318-1.3698-.34788-.45658-.23917-1.2393t.39136-1.5437q.30439-.76097.80446-1.3263.52181-.5653 1.0001-.58704 1.7829-.087-1.3698 4.6528.45659.21742 1.3045-.17394.0435 0 .19568-.0652.15219-.087.2609-.13045.17394-.13045.4131-.0652.26091.0652.43485.28264.17393.21743.0435.39136zm-2.9787-.58704q2.696-4.0658 1.6742-3.8701-.71749.15219-1.3698 1.6307-.65226 1.4567-.30439 2.2394zm-1.7397 2.6526q.10871-.19568.30439 0 .10871.10871 0 .30439-1.1523 1.7829-2.696 3.4135-1.4132 1.4785-2.7178 2.2394-1.2828.73923-2.1525.4131-.95666-.34787-1.1306-1.3263-.19568-.9784.28265-2.1742.47832-1.1958 1.261-2.3916t1.8046-2.109q1.0436-.93492 1.9133-1.2176.80446-.28264 1.4567.13046.65227.39136.34788 1.1523-.39136.95666-2.1525 2.0872-1.7611 1.1088-3.2613 1.7394-1.4132 2.9352-.34787 3.5005.4131.28265 1.0219.087.63052-.19568 1.2176-.54356.58704-.34787 1.2176-.93491.65226-.60878 1.1523-1.1306.50007-.54356.93491-1.0871.26091-.32614.52182-.67401.2609-.36962.54355-.80446.30439-.43485.47833-.67401zm-2.022-2.4786q-.65227-.32613-2.0003 1.0001-1.3263 1.3045-2.3916 3.1309 3.8701-1.8264 4.5441-3.2613.28265-.58704-.15219-.86969zm-11.447-.2609q-.89143 1.8046-2.1307 5.0007-1.2176 3.1961-.84794 3.7831.56529-.17394 2.1525-1.7829 1.6089-1.6089 3.3266-3.5657-.21743-1.4567.19568-3.2396.4131-1.8046 1.2176-2.9787.80446-1.1741 1.6089-.9784.8262.19568.86969 1.0654.0435.84795-.54356 1.9785-.56529 1.1306-1.0436 1.8916-.45659.76098-.86969 1.3045-.087.13046-.9784 1.1306.84795 3.6744 4.044-.5653.13045-.19568.43484-.60878.13046-.17394.28265-.0435.1522.10871 0 .30439-.30439.50007-.69575 1.0001-.36962.50007-.86969 1.0219-.47832.52181-1.0001.80446-.50007.28265-.9784.32613-.47832.0435-.89142-.4131-.41311-.47833-.65227-1.435-4.892 5.3486-5.7182 5.2181-.89143-.21742-.41311-2.3916.47833-2.1742 1.261-4.2832t1.1741-2.783q.0435-.0652.43484-.0652.4131 0 .47833.0435.21742.17394.1522.26091zm2.87 3.0004q1.0001-1.1523 1.3045-1.5872.21743-.32614.5653-.95666.36962-.63052.80446-1.5654.43485-.93491.4131-1.5872-.0217-.65226-.674-.65226-.5653 0-1.1741 1.0436-.58704 1.0219-.95666 2.5438-.36962 1.5002-.28265 2.7613zm-12.366 3.7831q-2.3264 2.7178-3.544 2.3916-1.348-.36962-1.0219-2.7178.30439-2.2612 1.7394-4.4354 1.435-2.196 2.783-2.196.28265 0 .52181.10871.82621.32613 1.522 2.0003.47832-.93491 1.0654-2.022.17394-.1522.4131-.087.26091.0652.43485.28265.19568.21742.0652.36961-.71749.91318-2.0655 3.9136-1.3263 2.9787-1.6524 4.6963-.13045.52181-.0652.76097.0652.23917.17394.32614.10871.10871.34788 0 .23916-.087.45658-.21742.21742-.13046.52182-.36962 1.1306-.89143 2.87-3.2178 1.7611-2.3482 2.3916-3.37.10871-.19568.28265-.0652.21742.087.087.28265-.10871.19568-.32613.50007-.19568.30439-.54356.8262-.34787.50007-.73923 1.0436-.36962.52181-.84795 1.1523-.45658.60878-.93491 1.1741t-.9784 1.1088q-.47833.52181-.93491.89143-.45659.36962-.84795.60878-.39136.23917-.73923.21742-.32613 0-.54356-.28264-.71749-.91318.10871-3.6744zm1.7394-4.3267q-.23916-.67401-.63052-1.261-.36962-.60879-.67401-.78272-.80446-.45659-2.1742 1.6959-1.3915 2.1742-1.9351 4.5006-.54356 2.196.43484 2.1307.02175 0 .04348 0 .69575-.0652 1.7829-1.0654.47833-.43485 1.7611-1.9785.60878-1.6524 1.3915-3.2396zm-4.7429-7.4141q-.28265.39136-1.6089 2.6091.69575.26091 1.0436.34787.34788.087.76098 0 .4131-.087.63052-.50007.06523-.17393.26091-.10871.21742.087.13045.28265-.17394.34788-.45659.54356-.2609.19568-.52181.2609-.23916.0435-.65227-.0217-.4131-.087-.67401-.15219-.23916-.087-.73923-.26091-1.522 2.6526-2.87 5.2834-1.7611 3.6744-2.196 5.8269-.28265 1.435.50007 1.1306.84794-.32613 2.3264-2.0438 1.6089-1.9351 3.7831-5.1964.10871-.17394.30439-.0652.17394.087.06523.28264-.39136.67401-1.2176 1.8698-.8262 1.1741-2.0872 2.8047-1.261 1.6089-2.3916 2.4134-1.1306.82621-1.6524.17394-1.2393-1.6089 1.8916-8.0664 1.0001-2.196 2.4134-4.7833-1.5654-.39136-2.3699.67401-.10871.19567-.28265.0652-.17394-.10872-.06523-.30439.9784-1.3045 2.9352-.82621 1.1958-2.1307 1.522-2.6091.02175-.087.34787-.087.34788 0 .43484.0435.02175 0 .08697.0652.06523.0435.10871.087.06523.0435.13045.087.06523.0435.08697.10871.04348.0435.02175.0652zm-8.3137 5.6312q-.63052.78272-1.522 2.8265-.89143 2.022-1.2393 3.5657-.45659 1.9351.30439 1.7829.78272-.17393 2.696-2.5004.17394-.19568 1.2393-1.6307 1.0871-1.435 1.1958-1.5654.10871-.10871.19568-.087.10871 0 .17394.087.06523.0652.04349.10871-1.0436 1.5872-2.3916 3.2613-1.6307 1.9785-2.696 2.5656-.67401.30439-1.0436.13045-.36962-.15219-.50007-.73923t-.10871-1.1523q.02175-.5653.13045-1.0436.50007-2.4569 2.6091-6.1965.17394-.15219.4131-.087.26091.0652.43484.28264.19568.21743.06523.39136zm.30439-1.9785q-.21742-.28264-.10871-.65226.10871-.39136.45659-.63052.36962-.26091.63052-.0435.23916.26091.06523.60878-.17394.32613-.54356.58704-.36962.26091-.50007.13045zm-10.053 3.2831-.21742.45659q2.2177-1.7611 3.0004-2.1742 1.0654-.58704 1.6307-.34787.58704.23916.71749.95665.13045.69575-.36962 1.1523-1.0654.93491-4.305 1.6524.78272.43485 1.0219 1.5437.23916 1.0871.10871 2.1742-.10871 1.0654-.08697 2.0003.02174.95665.39136 1.1088.23916.10871.8262-.52181.58704-.63053 1.3263-1.6959.73924-1.0654 1.3915-2.0872.67401-1.0219 1.2828-2.0003.60878-1.0001.69575-1.1306.13045-.17393.30439-.0435.15219.15219.04348.30439-.17394.26091-1.0871 1.7176-.89143 1.435-1.6307 2.5656-.73923 1.1088-1.6307 2.1742-.86969 1.0654-1.3263 1.1523-.86969.0435-1.2393-.56529-.34788-.58704-.32613-1.5002.02174-.93492.10871-1.9133.08697-.97839-.04348-1.8263-.13045-.86969-.65227-1.1741-.13045-.087-.32613-.17393-.13045-.0652-.19568-.087-.04348-.0435-.02174-.087.06523-.1522.93491-.43485.86969-.30439 2.0003-.76097 1.1523-.45659 1.7394-.95666.39136-.34787.43484-.71749.04348-.39136-.34788-.47833-.26091-.0435-.69575.13045-.4131.1522-1.0001.5653-.5653.39136-1.0001.71749-.43484.32614-1.1523.89143-.69575.54356-.93491.73924-1.6524 3.4788-2.2177 5.7182-.17394.26091-.4131.23917-.26091-.0217-.32613-.26091.1522-1.435 1.0871-3.7614.93491-2.3264 1.7176-3.8918.80446-1.5872 1.5872-2.9787 2.0655-3.6962 4.1745-6.1313 2.1307-2.4569 3.3266-2.1742 2.1525.52181-2.7613 6.24-2.5873 3.0222-5.1529 5.3703-.17394.17394-.28265.26091-.08697.0435-.10871.0435zm8.3925-11.393q-1.0219.0435-2.8917 2.4134-1.8481 2.3482-3.7614 5.7399l-1.2176 2.2394q1.0871-1.0219 2.4351-2.4569 1.348-1.435 2.783-3.1091 1.4567-1.6959 2.2394-3.0439.80446-1.3698.4131-1.7829zm-8.9513 6.5661q-.19568-2.8047-4.0223-2.4569-1.3263.13046-2.8482 1.0871-1.5002.95666-2.7395 2.3916-1.2393 1.4132-2.1742 3.1526-.93491 1.7176-1.1089 3.3918-.17394 1.6524.47833 3.0874 1.348 1.8481 4.3702.19568 2.4786-1.348 4.7615-4.2397 2.3699-2.9787 2.5873-5.1746.1522-1.5437-.95666-2.109-.69575-.36962-1.6089-.13045-.91317.21742-1.7611.86969-.8262.63052-1.6307 1.522-.80446.86969-1.261 1.8046t-.60878 1.7611q-.1522.8262.28265 1.348.1522.19568.45658.21742.32613.0217.45659-.0217.1522-.0435.52181-.15218.19568-.087.28265.10871.08697.19568-.13045.28264-1.261.47833-1.8263-.0652-.54356-.50007-.50007-1.4132.04349-.93493.54356-1.9351.50007-1.0001 1.3045-2.022.80446-1.0219 1.7829-1.6959 1.0001-.69574 2.0003-1.0001 1.0001-.30439 1.8916.13045 2.0438 1.1741 1.1089 4.2397-.80446 2.7178-3.3918 5.4138-2.6308 2.783-5.1964 3.457-2.3699.63053-3.7179-1.0219-.95666-1.1741-1.1089-2.6743-.1522-1.5002.34788-2.9569.52181-1.4785 1.522-2.9134 1.0001-1.4567 2.2612-2.5873 1.2828-1.1306 2.7613-1.8916 1.4785-.76099 2.8482-.89144 1.8046-.17394 3.0656.50007 1.261.65227 1.3915 2.3916 0 .21742-.21742.21742t-.21742-.21742zm54.79-12.11q-2.3264 2.7178-3.544 2.3916-1.348-.36961-1.0219-2.7178.30439-2.2612 1.7394-4.4354 1.435-2.196 2.783-2.196.28265 0 .52181.10872.82621.32613 1.522 2.0003.47833-.93492 1.0654-2.022.17394-.15219.41311-.087.2609.0652.43484.28265.19568.21742.0652.36962-.7175.91317-2.0655 3.9136-1.3263 2.9787-1.6524 4.6963-.13045.52182-.0652.76098.0652.23916.17393.32613.10871.10871.34788 0 .23916-.087.45658-.21742.21743-.13045.52182-.36962 1.1306-.89142 2.87-3.2178 1.7611-2.3482 2.3916-3.37.10872-.19568.28265-.0652.21743.087.087.28264-.10871.19568-.32613.50007-.19568.3044-.54356.82621-.34787.50007-.73923 1.0436-.36962.52182-.84794 1.1523-.45659.60878-.93492 1.1741-.47833.56529-.9784 1.1088-.47832.52181-.93491.89143-.45659.36961-.84795.60878-.39136.23916-.73923.21742-.32613 0-.54355-.28265-.7175-.91317.10871-3.6744zm1.7394-4.3267q-.23916-.67401-.63052-1.261-.36962-.60878-.67401-.78272-.80446-.45658-2.1742 1.6959-1.3915 2.1742-1.935 4.5006-.54356 2.196.43484 2.1307.0217 0 .0435 0 .69574-.0652 1.7828-1.0654.47833-.43484 1.7611-1.9785.60878-1.6524 1.3915-3.2396zm-8.794-.54356-.26091.58704q-.0652.1522-.21742.43485-.15219.28264-.19568.36961-1.8916 4.0223-2.3047 6.1096-.23916 1.1523.28265 1.1523.52181.0218 1.1523-.65226 1.1741-1.1306 2.9135-3.457 1.7611-2.3482 2.2612-3.1526.0652-.17393.28265-.087.17394.10872.087.3044-.13045.19567-.32613.50007-.17394.28264-.52181.80446-.34788.52181-.73924 1.0654-.36962.52182-.84794 1.1523-.45659.63052-.91318 1.1958-.45658.54355-.95665 1.0654-.47833.54355-.93492.91317-.43484.39136-.84794.60878-.39136.23916-.71749.21742-.32614 0-.54356-.26091-.78272-1.0219.21742-4.0658-.60878.60878-1.0001.97839-.39136.34788-1.0436.86969-.65227.50007-1.2176.67401-.54356.19568-.9784.0435-1.3263-.47832-.76098-2.8482.52181-2.196 2.109-4.218 1.6524-2.0872 3.0004-1.9568 1.1958.15219 1.7394 2.1307 0-.0217.0217-.0217 1.2828-2.9352 3.0439-5.8269 1.7829-2.9134 3.6092-4.8268 1.8263-1.935 2.87-1.6959 2.1525.52181-2.783 6.2618-2.5873 3.0222-5.1529 5.3703-.17394.15219-.2609.23916-.0217.0217-.0652.0217zm-1.6524.78272q-.34787-1.3915-1.0001-1.8046-.76097-.52181-2.3482 1.5654-1.5437 2.0655-2.2829 4.2832-.69575 2.1525.30439 2.1525.69575-.0217 1.8698-.91317.47832-.36961 1.2828-1.1741.80447-.80447 1.0219-1.0002.45658-1.2828 1.261-2.9569-.0652-.0435-.10871-.1522zm10.001-12.154q-1.1958.0652-3.4788 3.1961-2.2829 3.1309-4.3484 7.1314 1.0871-1.0436 2.4351-2.4569 1.348-1.435 2.783-3.1091 1.4567-1.6742 2.2177-3.0004.78272-1.348.39136-1.7611zm-25.817 16.502q4.5224-6.5661 6.1965-6.914.34787-.087.58704.10872.17393.13045.19568.47832.0217.34788-.10872.86969-.13045.52181-.32613 1.1306-.19568.58704-.47833 1.3698-.28264.78272-.56529 1.5002-.26091.71749-.58704 1.6089-.32613.86969-.54356 1.5654-.58704 1.8481.13046 1.7176.8262-.15219 2.783-2.5438 1.0219-1.2828 2.0872-2.8047 1.0871-1.522 1.348-1.9568.10871-.17394.30439-.0652.17394.087.0652.28265-1.2828 2.1525-3.1744 4.5006-3.2178 4.0223-4.1528 2.7613-.30439-.39136-.34787-1.0654-.0435-.674.17394-1.5654.21742-.91317.43484-1.6742.23916-.78272.67401-1.8481.45658-1.0871.674-1.5654.21743-.50007.58704-1.3045.78272-1.7394-.8262-.41311-.80446.67401-1.9568 2.196-1.1523 1.522-2.2829 3.2178-1.1306 1.6742-1.4785 2.109l-.0218.0652q-.0217.0652-.087.30439-.3044.30439-.84795.0217.087-1.3263.80446-3.2396.69575-1.9133 1.3045-3.1526.60878-1.2393.5653-1.2393 0 0 .28265-.36961.2609-.28265.34787.0652.0217.28265.0435.45659.0435.15219-.087.60878-.10871.45658-.21742.76098-.087.28264-.30439.86968-.19568.5653-.36962.9784-.1522.39136-.4131 1.0436-.23917.65226-.41311 1.1306zm-6.6042-.26091q-2.3264 2.7178-3.544 2.3916-1.348-.36961-1.0219-2.7178.30439-2.2612 1.7394-4.4354 1.435-2.196 2.783-2.196.28265 0 .52181.10872.82621.32613 1.522 2.0003.47832-.93492 1.0654-2.022.17394-.15219.4131-.087.26091.0652.43485.28265.19568.21742.0652.36962-.71749.91317-2.0655 3.9136-1.3263 2.9787-1.6524 4.6963-.13045.52182-.0652.76098.0652.23916.17394.32613.10871.10871.34788 0 .23916-.087.45658-.21742.21742-.13045.52182-.36962 1.1306-.89142 2.87-3.2178 1.7611-2.3482 2.3916-3.37.10871-.19568.28265-.0652.21742.087.087.28264-.10871.19568-.32613.50007-.19568.3044-.54356.82621-.34787.50007-.73923 1.0436-.36962.52182-.84795 1.1523-.45658.60878-.93491 1.1741-.47833.56529-.9784 1.1088-.47833.52181-.93491.89143-.45659.36961-.84795.60878-.39136.23916-.73923.21742-.32613 0-.54356-.28265-.71749-.91317.10871-3.6744zm1.7394-4.3267q-.23916-.67401-.63052-1.261-.36962-.60878-.67401-.78272-.80446-.45658-2.1742 1.6959-1.3915 2.1742-1.9351 4.5006-.54355 2.196.43484 2.1307.02175 0 .04349 0 .69575-.0652 1.7829-1.0654.47833-.43484 1.7611-1.9785.60878-1.6524 1.3915-3.2396zm-6.86-8.6751q.71749.15219.71749.36961-.47833.84795-2.2394 6.8923-1.7394 6.0226-2.2394 7.2836.73924-1.0654 3.5222-5.4356 2.783-4.3702 3.1091-4.8268 1.5002-2.1307 2.2829-2.9135 1.8046-1.7394 3.6092-1.435 1.0436.19568 1.6307 2.109.0435.21742-.1522.26091-.21742.0435-.26091-.1522-.43484-1.435-1.0871-1.7394-.65227-.30439-2.1307.30439-1.8698.80446-6.6966 8.6751-.17394.26091-.23916.36962-.06523.13045-.84795 1.4132-.78272 1.261-1.7829 2.696-.9784 1.435-1.2828 1.5654-.08697.0435-.15219-.0217-.04348-.0652-.06523-.21743-.1522-.93491.89143-4.892 1.0654-3.9788 2.2612-7.0445-9.871 13.263-14.241 12.023-.52181-.15219-.95666-.50007-1.3698-1.1306.1522-3.6527 1.2176-2.0003 3.3266-3.5657 2.1525-1.5872 3.1744-1.1523.30439.13045.45659.43484.21742.47833-.10871 1.1306-.30439.65226-.9784 1.3045-.67401.65226-1.2176 1.1088-.52181.43484-1.0219.78272-.13045.0652-.21742-.0435-.13045-.13046.04348-.21743 3.7179-2.6308 2.9569-3.8701-.47833-.78271-2.3482.43485-1.8698 1.2393-3.2831 3.1526-1.8046 2.4786-.91317 3.6744.10871.10871.21742.21743.9784.65226 2.3047.2609 1.348-.39136 2.9352-1.5872 1.5872-1.2176 3.1744-2.8047t3.0439-3.3266q1.4785-1.7611 2.5656-3.2396 1.1089-1.4785 1.7176-2.4569.60878-1.0001.47833-1.0654-.58704-.10871-1.3045-.0652-.71749.0435-1.8481.28265-1.1306.23916-1.9785.45659-.8262.19567-1.6959.43484-.84795.21742-1.0001.26091-1.3698.28264-2.9135.32613-1.5437.0217-3.1961-.21742-1.6307-.26091-2.87-1.1306-1.261-.89143-1.6524-2.3047-.17394-.65226-.10871-1.4132.04348-.63052.34788-.67401.23916-.0435.32613.21742.10871.36962-.4131.50007-.06523 1.2176.45659 2.109.52181.89142 1.4132 1.348.89143.45659 2.022.76098 1.1089.28265 2.2177.2609 1.1306-.0217 2.109-.0435.84794-.0652 4.7181-.86969 3.8701-.80446 5.2616-.54355z"/>
  </clipPath>
 </defs>
 <path class="LSHDW" d="m 77.153315,42.413489 q -2.3264,2.7178 -3.544,2.3916 -1.348,-0.36962 -1.0219,-2.7178 0.30439,-2.2612 1.7394,-4.4354 1.435,-2.196 2.783,-2.196 0.28264,0 0.52181,0.10871 0.8262,0.32613 1.522,2.0003 0.47833,-0.93491 1.0654,-2.022 0.17394,-0.1522 0.4131,-0.087 0.26091,0.0652 0.43484,0.28265 0.19568,0.21742 0.0652,0.36961 -0.71749,0.91318 -2.0655,3.9136 -1.3263,2.9787 -1.6524,4.6963 -0.13046,0.52181 -0.0652,0.76097 0.0652,0.23917 0.17394,0.32614 0.10871,0.10871 0.34787,0 0.23917,-0.087 0.45659,-0.21742 0.21742,-0.13046 0.52181,-0.36962 1.1958,-0.93492 3.4788,-4.0223 0.5653,-0.69575 1.435,-1.9133 0.89143,-1.2176 1.5437,-1.8916 0.65226,-0.67401 1.7394,-1.4567 2.87,-2.0438 5.9574,-2.5221 1.9351,-0.28265 3.5657,0.52181 1.6524,0.78272 2.3699,2.2829 0.67401,1.5002 0.23916,3.2613 -0.4131,1.6524 -1.8046,2.7613 -1.3698,1.0871 -3.0004,1.2393 -1.1741,0.10871 -2.1742,-0.34787 -1.0001,-0.45659 -1.5872,-1.4785 -0.63052,-1.1523 -0.23916,-2.7395 0.17394,-1.0871 0.63052,-1.3045 0.32613,-0.15219 0.43484,0.19568 0.1522,0.54356 -0.63052,1.0871 -0.0435,0.0217 -0.10871,0.0652 -0.34787,1.3915 0.13045,2.3699 0.91318,1.935 3.544,1.6959 1.5437,-0.1522 2.8265,-1.1088 1.2828,-0.9784 1.6742,-2.5221 0.65227,-2.696 -1.2176,-4.2615 -1.8481,-1.5872 -4.6311,-1.1741 -3.7179,0.56529 -6.3922,2.696 -0.34787,0.28265 -0.71749,0.65226 -0.34787,0.34788 -0.5653,0.5653 -0.19568,0.21742 -0.58704,0.73923 -0.39135,0.52182 -0.47832,0.63053 -0.087,0.10871 -0.5653,0.78272 -0.45659,0.65226 -0.47833,0.674 -0.36962,0.54356 -0.76097,1.0436 -0.36962,0.50007 -0.82621,1.1088 -0.45658,0.58704 -0.89143,1.0871 -0.43484,0.47833 -0.89143,0.95666 -0.45658,0.47832 -0.86968,0.80446 -0.41311,0.32613 -0.78272,0.50007 -0.36962,0.19568 -0.67401,0.17393 -0.30439,-0.0217 -0.50007,-0.28264 -0.71749,-0.91318 0.10871,-3.6744 z m 1.7394,-4.3267 q -0.23916,-0.67401 -0.63052,-1.261 -0.36962,-0.60879 -0.67401,-0.78272 -0.80446,-0.45659 -2.1742,1.6959 -1.3915,2.1742 -1.9351,4.5006 -0.54355,2.196 0.43484,2.1307 0.0217,0 0.0435,0 0.69575,-0.0652 1.7829,-1.0654 0.47833,-0.43485 1.7611,-1.9785 0.60879,-1.6524 1.3915,-3.2396 z m -7.9855,-1.7829 q -0.71749,0.86969 -2.0655,3.8701 -1.3263,3.0004 -1.6524,4.7398 -0.23917,1.1523 0.28265,1.1523 0.52181,0 1.1523,-0.674 2.109,-2.0438 5.2181,-6.6096 0.13045,-0.17394 0.28264,-0.0652 0.17394,0.10871 0.087,0.28264 -1.8698,2.783 -3.0656,4.305 -3.37,4.1962 -4.3267,2.9569 -0.30439,-0.39136 -0.34787,-1.1523 -0.0217,-0.73924 0.21742,-1.6524 0.23916,-0.93491 0.56529,-1.8916 0.34788,-0.9784 0.80446,-2.0003 0.47833,-1.0436 0.84795,-1.8046 0.39136,-0.78272 0.76098,-1.4785 -1.0436,0.43484 -1.6524,0.1522 -0.4131,0.60878 -0.89143,1.3045 -0.45659,0.69575 -0.73923,1.1306 -0.26091,0.4131 -0.32614,0.50007 -0.15219,0.19568 -0.30439,0.0435 -0.15219,-0.10872 -0.0435,-0.3044 0.0217,-0.0435 0.30439,-0.47832 0.28265,-0.43485 0.73923,-1.1523 0.45659,-0.71749 0.91318,-1.3698 -0.34788,-0.45658 -0.23917,-1.2393 0.10871,-0.78272 0.39136,-1.5437 0.30439,-0.76097 0.80446,-1.3263 0.52181,-0.5653 1.0001,-0.58704 1.7829,-0.087 -1.3698,4.6528 0.45659,0.21742 1.3045,-0.17394 0.0435,0 0.19568,-0.0652 0.15219,-0.087 0.2609,-0.13045 0.17394,-0.13045 0.4131,-0.0652 0.26091,0.0652 0.43485,0.28264 0.17393,0.21743 0.0435,0.39136 z m -2.9787,-0.58704 q 2.696,-4.0658 1.6742,-3.8701 -0.71749,0.15219 -1.3698,1.6307 -0.65226,1.4567 -0.30439,2.2394 z m -1.7397,2.6526 q 0.10871,-0.19568 0.30439,0 0.10871,0.10871 0,0.30439 -1.1523,1.7829 -2.696,3.4135 -1.4132,1.4785 -2.7178,2.2394 -1.2828,0.73923 -2.1525,0.4131 -0.95666,-0.34787 -1.1306,-1.3263 -0.19568,-0.9784 0.28265,-2.1742 0.47832,-1.1958 1.261,-2.3916 0.78268,-1.1958 1.8046,-2.109 1.0436,-0.93492 1.9133,-1.2176 0.80446,-0.28264 1.4567,0.13046 0.65227,0.39136 0.34788,1.1523 -0.39136,0.95666 -2.1525,2.0872 -1.7611,1.1088 -3.2613,1.7394 -1.4132,2.9352 -0.34787,3.5005 0.4131,0.28265 1.0219,0.087 0.63052,-0.19568 1.2176,-0.54356 0.58704,-0.34787 1.2176,-0.93491 0.65226,-0.60878 1.1523,-1.1306 0.50007,-0.54356 0.93491,-1.0871 0.26091,-0.32614 0.52182,-0.67401 0.2609,-0.36962 0.54355,-0.80446 0.30439,-0.43485 0.47833,-0.67401 z m -2.022,-2.4786 q -0.65227,-0.32613 -2.0003,1.0001 -1.3263,1.3045 -2.3916,3.1309 3.8701,-1.8264 4.5441,-3.2613 0.28265,-0.58704 -0.15219,-0.86969 z m -11.447,-0.2609 q -0.89143,1.8046 -2.1307,5.0007 -1.2176,3.1961 -0.84794,3.7831 0.56529,-0.17394 2.1525,-1.7829 1.6089,-1.6089 3.3266,-3.5657 -0.21743,-1.4567 0.19568,-3.2396 0.4131,-1.8046 1.2176,-2.9787 0.80446,-1.1741 1.6089,-0.9784 0.8262,0.19568 0.86969,1.0654 0.0435,0.84795 -0.54356,1.9785 -0.56529,1.1306 -1.0436,1.8916 -0.45659,0.76098 -0.86969,1.3045 -0.087,0.13046 -0.9784,1.1306 0.84795,3.6744 4.044,-0.5653 0.13045,-0.19568 0.43484,-0.60878 0.13046,-0.17394 0.28265,-0.0435 0.1522,0.10871 0,0.30439 -0.30439,0.50007 -0.69575,1.0001 -0.36962,0.50007 -0.86969,1.0219 -0.47832,0.52181 -1.0001,0.80446 -0.50007,0.28265 -0.9784,0.32613 -0.47832,0.0435 -0.89142,-0.4131 -0.41311,-0.47833 -0.65227,-1.435 -4.892,5.3486 -5.7182,5.2181 -0.89143,-0.21742 -0.41311,-2.3916 0.47833,-2.1742 1.261,-4.2832 0.78267,-2.109 1.1741,-2.783 0.0435,-0.0652 0.43484,-0.0652 0.4131,0 0.47833,0.0435 0.21742,0.17394 0.1522,0.26091 z m 2.87,3.0004 q 1.0001,-1.1523 1.3045,-1.5872 0.21743,-0.32614 0.5653,-0.95666 0.36962,-0.63052 0.80446,-1.5654 0.43485,-0.93491 0.4131,-1.5872 -0.0217,-0.65226 -0.674,-0.65226 -0.5653,0 -1.1741,1.0436 -0.58704,1.0219 -0.95666,2.5438 -0.36962,1.5002 -0.28265,2.7613 z m -12.366,3.7831 q -2.3264,2.7178 -3.544,2.3916 -1.348,-0.36962 -1.0219,-2.7178 0.30439,-2.2612 1.7394,-4.4354 1.435,-2.196 2.783,-2.196 0.28265,0 0.52181,0.10871 0.82621,0.32613 1.522,2.0003 0.47832,-0.93491 1.0654,-2.022 0.17394,-0.1522 0.4131,-0.087 0.26091,0.0652 0.43485,0.28265 0.19568,0.21742 0.0652,0.36961 -0.71749,0.91318 -2.0655,3.9136 -1.3263,2.9787 -1.6524,4.6963 -0.13045,0.52181 -0.0652,0.76097 0.0652,0.23917 0.17394,0.32614 0.10871,0.10871 0.34788,0 0.23916,-0.087 0.45658,-0.21742 0.21742,-0.13046 0.52182,-0.36962 1.1306,-0.89143 2.87,-3.2178 1.7611,-2.3482 2.3916,-3.37 0.10871,-0.19568 0.28265,-0.0652 0.21742,0.087 0.087,0.28265 -0.10871,0.19568 -0.32613,0.50007 -0.19568,0.30439 -0.54356,0.8262 -0.34787,0.50007 -0.73923,1.0436 -0.36962,0.52181 -0.84795,1.1523 -0.45658,0.60878 -0.93491,1.1741 -0.47833,0.56532 -0.9784,1.1088 -0.47833,0.52181 -0.93491,0.89143 -0.45659,0.36962 -0.84795,0.60878 -0.39136,0.23917 -0.73923,0.21742 -0.32613,0 -0.54356,-0.28264 -0.71749,-0.91318 0.10871,-3.6744 z m 1.7394,-4.3267 q -0.23916,-0.67401 -0.63052,-1.261 -0.36962,-0.60879 -0.67401,-0.78272 -0.80446,-0.45659 -2.1742,1.6959 -1.3915,2.1742 -1.9351,4.5006 -0.54356,2.196 0.43484,2.1307 0.02175,0 0.04348,0 0.69575,-0.0652 1.7829,-1.0654 0.47833,-0.43485 1.7611,-1.9785 0.60878,-1.6524 1.3915,-3.2396 z m -4.7429,-7.4141 q -0.28265,0.39136 -1.6089,2.6091 0.69575,0.26091 1.0436,0.34787 0.34788,0.087 0.76098,0 0.4131,-0.087 0.63052,-0.50007 0.06523,-0.17393 0.26091,-0.10871 0.21742,0.087 0.13045,0.28265 -0.17394,0.34788 -0.45659,0.54356 -0.2609,0.19568 -0.52181,0.2609 -0.23916,0.0435 -0.65227,-0.0217 -0.4131,-0.087 -0.67401,-0.15219 -0.23916,-0.087 -0.73923,-0.26091 -1.522,2.6526 -2.87,5.2834 -1.761101,3.6744 -2.196001,5.8269 -0.28265,1.435 0.50007,1.1306 0.84794,-0.32613 2.326401,-2.0438 1.6089,-1.9351 3.7831,-5.1964 0.10871,-0.17394 0.30439,-0.0652 0.17394,0.087 0.06523,0.28264 -0.39136,0.67401 -1.2176,1.8698 -0.8262,1.1741 -2.0872,2.8047 -1.261,1.6089 -2.391601,2.4134 -1.1306,0.82621 -1.6524,0.17394 -1.2393,-1.6089 1.8916,-8.0664 1.000101,-2.196 2.413401,-4.7833 -1.5654,-0.39136 -2.369901,0.67401 -0.10871,0.19567 -0.28265,0.0652 -0.17394,-0.10872 -0.06523,-0.30439 0.978401,-1.3045 2.935201,-0.82621 1.1958,-2.1307 1.522,-2.6091 0.02175,-0.087 0.34787,-0.087 0.34788,0 0.43484,0.0435 0.02175,0 0.08697,0.0652 0.06523,0.0435 0.10871,0.087 0.06523,0.0435 0.13045,0.087 0.06523,0.0435 0.08697,0.10871 0.04348,0.0435 0.02175,0.0652 z m -8.313701,5.6312 q -0.63052,0.78272 -1.522,2.8265 -0.89143,2.022 -1.2393,3.5657 -0.45659,1.9351 0.30439,1.7829 0.78272,-0.17393 2.696,-2.5004 0.17394,-0.19568 1.2393,-1.6307 1.0871,-1.435 1.1958,-1.5654 0.10871,-0.10871 0.19568,-0.087 0.10871,0 0.17394,0.087 0.06523,0.0652 0.04349,0.10871 -1.0436,1.5872 -2.3916,3.2613 -1.6307,1.9785 -2.696,2.5656 -0.67401,0.30439 -1.0436,0.13045 -0.36962,-0.15219 -0.50007,-0.73923 -0.13045,-0.58704 -0.10871,-1.1523 0.02175,-0.5653 0.13045,-1.0436 0.50007,-2.4569 2.6091,-6.1965 0.17394,-0.15219 0.4131,-0.087 0.26091,0.0652 0.43484,0.28264 0.19568,0.21743 0.06523,0.39136 z m 0.30439,-1.9785 q -0.21742,-0.28264 -0.10871,-0.65226 0.10871,-0.39136 0.45659,-0.63052 0.36962,-0.26091 0.63052,-0.0435 0.23916,0.26091 0.06523,0.60878 -0.17394,0.32613 -0.54356,0.58704 -0.36962,0.26091 -0.50007,0.13045 z m -10.053,3.2831 -0.21742,0.45659 q 2.2177,-1.7611 3.0004,-2.1742 1.0654,-0.58704 1.6307,-0.34787 0.58704,0.23916 0.71749,0.95665 0.13045,0.69575 -0.36962,1.1523 -1.0654,0.93491 -4.305,1.6524 0.78272,0.43485 1.0219,1.5437 0.23916,1.0871 0.10871,2.1742 -0.10871,1.0654 -0.08697,2.0003 0.02174,0.95665 0.39136,1.1088 0.23916,0.10871 0.8262,-0.52181 0.58704,-0.63053 1.3263,-1.6959 0.73924,-1.0654 1.3915,-2.0872 0.67401,-1.0219 1.2828,-2.0003 0.60878,-1.0001 0.69575,-1.1306 0.13045,-0.17393 0.30439,-0.0435 0.15219,0.15219 0.04348,0.30439 -0.17394,0.26091 -1.0871,1.7176 -0.89143,1.435 -1.6307,2.5656 -0.73923,1.1088 -1.6307,2.1742 -0.86969,1.0654 -1.3263,1.1523 -0.86969,0.0435 -1.2393,-0.56529 -0.34788,-0.58704 -0.32613,-1.5002 0.02174,-0.93492 0.10871,-1.9133 0.08697,-0.97839 -0.04348,-1.8263 -0.13045,-0.86969 -0.65227,-1.1741 -0.13045,-0.087 -0.32613,-0.17393 -0.13045,-0.0652 -0.19568,-0.087 -0.04348,-0.0435 -0.02174,-0.087 0.06523,-0.1522 0.93491,-0.43485 0.86969,-0.30439 2.0003,-0.76097 1.1523,-0.45659 1.7394,-0.95666 0.39136,-0.34787 0.43484,-0.71749 0.04348,-0.39136 -0.34788,-0.47833 -0.26091,-0.0435 -0.69575,0.13045 -0.4131,0.1522 -1.0001,0.5653 -0.5653,0.39136 -1.0001,0.71749 -0.43484,0.32614 -1.1523,0.89143 -0.69575,0.54356 -0.93491,0.73924 -1.6524,3.4788 -2.2177,5.7182 -0.17394,0.26091 -0.4131,0.23917 -0.26091,-0.0217 -0.32613,-0.26091 0.1522,-1.435 1.0871,-3.7614 0.93491,-2.3264 1.7176,-3.8918 0.80446,-1.5872 1.5872,-2.9787 2.0655,-3.6962 4.1745,-6.1313 2.1307,-2.4569 3.3266,-2.1742 2.1525,0.52181 -2.7613,6.24 -2.5873,3.0222 -5.1529,5.3703 -0.17394,0.17394 -0.28265,0.26091 -0.08697,0.0435 -0.10871,0.0435 z m 8.3925,-11.393 q -1.0219,0.0435 -2.8917,2.4134 -1.8481,2.3482 -3.7614,5.7399 l -1.2176,2.2394 q 1.0871,-1.0219 2.4351,-2.4569 1.348,-1.435 2.783,-3.1091 1.4567,-1.6959 2.2394,-3.0439 0.80446,-1.3698 0.4131,-1.7829 z m -8.9513,6.5661 q -0.19568,-2.8047 -4.0223,-2.4569 -1.3263,0.13046 -2.8482,1.0871 -1.5002,0.95666 -2.7395,2.3916 -1.2393,1.4132 -2.1742,3.1526 -0.9349104,1.7176 -1.1089004,3.3918 -0.17394,1.6524 0.47833,3.0874 1.3480004,1.8481 4.3702004,0.19568 2.4786,-1.348 4.7615,-4.2397 2.3699,-2.9787 2.5873,-5.1746 0.1522,-1.5437 -0.95666,-2.109 -0.69575,-0.36962 -1.6089,-0.13045 -0.91317,0.21742 -1.7611,0.86969 -0.8262,0.63052 -1.6307,1.522 -0.80446,0.86969 -1.261,1.8046 -0.45654,0.93491 -0.60878,1.7611 -0.1522,0.8262 0.28265,1.348 0.1522,0.19568 0.45658,0.21742 0.32613,0.0217 0.45659,-0.0217 0.1522,-0.0435 0.52181,-0.15218 0.19568,-0.087 0.28265,0.10871 0.08697,0.19568 -0.13045,0.28264 -1.261,0.47833 -1.8263,-0.0652 -0.54356,-0.50007 -0.50007,-1.4132 0.04349,-0.93493 0.54356,-1.9351 0.50007,-1.0001 1.3045,-2.022 0.80446,-1.0219 1.7829,-1.6959 1.0001,-0.69574 2.0003,-1.0001 1.0001,-0.30439 1.8916,0.13045 2.0438,1.1741 1.1089,4.2397 -0.80446,2.7178 -3.3918,5.4138 -2.6308,2.783 -5.1964,3.457 -2.3699,0.63053 -3.7179004,-1.0219 -0.95666,-1.1741 -1.1089,-2.6743 -0.1522,-1.5002 0.34788,-2.9569 0.52181,-1.4785 1.522,-2.9134 1.0001004,-1.4567 2.2612004,-2.5873 1.2828,-1.1306 2.7613,-1.8916 1.4785,-0.76099 2.8482,-0.89144 1.8046,-0.17394 3.0656,0.50007 1.261,0.65227 1.3915,2.3916 0,0.21742 -0.21742,0.21742 -0.21742,0 -0.21742,-0.21742 z m 54.790001,-12.11 q -2.3264,2.7178 -3.544,2.3916 -1.348,-0.36961 -1.0219,-2.7178 0.30439,-2.2612 1.7394,-4.4354 1.435,-2.196 2.783,-2.196 0.28265,0 0.52181,0.10872 0.82621,0.32613 1.522,2.0003 0.47833,-0.93492 1.0654,-2.022 0.17394,-0.15219 0.41311,-0.087 0.2609,0.0652 0.43484,0.28265 0.19568,0.21742 0.0652,0.36962 -0.7175,0.91317 -2.0655,3.9136 -1.3263,2.9787 -1.6524,4.6963 -0.13045,0.52182 -0.0652,0.76098 0.0652,0.23916 0.17393,0.32613 0.10871,0.10871 0.34788,0 0.23916,-0.087 0.45658,-0.21742 0.21743,-0.13045 0.52182,-0.36962 1.1306,-0.89142 2.87,-3.2178 1.7611,-2.3482 2.3916,-3.37 0.10872,-0.19568 0.28265,-0.0652 0.21743,0.087 0.087,0.28264 -0.10871,0.19568 -0.32613,0.50007 -0.19568,0.3044 -0.54356,0.82621 -0.34787,0.50007 -0.73923,1.0436 -0.36962,0.52182 -0.84794,1.1523 -0.45659,0.60878 -0.93492,1.1741 -0.47833,0.56529 -0.9784,1.1088 -0.47832,0.52181 -0.93491,0.89143 -0.45659,0.36961 -0.84795,0.60878 -0.39136,0.23916 -0.73923,0.21742 -0.32613,0 -0.54355,-0.28265 -0.7175,-0.91317 0.10871,-3.6744 z m 1.7394,-4.3267 q -0.23916,-0.67401 -0.63052,-1.261 -0.36962,-0.60878 -0.67401,-0.78272 -0.80446,-0.45658 -2.1742,1.6959 -1.3915,2.1742 -1.935,4.5006 -0.54356,2.196 0.43484,2.1307 0.0217,0 0.0435,0 0.69574,-0.0652 1.7828,-1.0654 0.47833,-0.43484 1.7611,-1.9785 0.60878,-1.6524 1.3915,-3.2396 z m -8.794,-0.54356 -0.26091,0.58704 q -0.0652,0.1522 -0.21742,0.43485 -0.15219,0.28264 -0.19568,0.36961 -1.8916,4.0223 -2.3047,6.1096 -0.23916,1.1523 0.28265,1.1523 0.52181,0.0218 1.1523,-0.65226 1.1741,-1.1306 2.9135,-3.457 1.7611,-2.3482 2.2612,-3.1526 0.0652,-0.17393 0.28265,-0.087 0.17394,0.10872 0.087,0.3044 -0.13045,0.19567 -0.32613,0.50007 -0.17394,0.28264 -0.52181,0.80446 -0.34788,0.52181 -0.73924,1.0654 -0.36962,0.52182 -0.84794,1.1523 -0.45659,0.63052 -0.91318,1.1958 -0.45658,0.54355 -0.95665,1.0654 -0.47833,0.54355 -0.93492,0.91317 -0.43484,0.39136 -0.84794,0.60878 -0.39136,0.23916 -0.71749,0.21742 -0.32614,0 -0.54356,-0.26091 -0.78272,-1.0219 0.21742,-4.0658 -0.60878,0.60878 -1.0001,0.97839 -0.39136,0.34788 -1.0436,0.86969 -0.65227,0.50007 -1.2176,0.67401 -0.54356,0.19568 -0.9784,0.0435 -1.3263,-0.47832 -0.76098,-2.8482 0.52181,-2.196 2.109,-4.218 1.6524,-2.0872 3.0004,-1.9568 1.1958,0.15219 1.7394,2.1307 0,-0.0217 0.0217,-0.0217 1.2828,-2.9352 3.0439,-5.826902 1.7829,-2.913403 3.6092,-4.826803 1.8263,-1.935 2.87,-1.6959 2.1525,0.52181 -2.783,6.261802 -2.5873,3.022203 -5.1529,5.370303 -0.17394,0.15219 -0.2609,0.23916 -0.0217,0.0217 -0.0652,0.0217 z m -1.6524,0.78272 q -0.34787,-1.3915 -1.0001,-1.8046 -0.76097,-0.52181 -2.3482,1.5654 -1.5437,2.0655 -2.2829,4.2832 -0.69575,2.1525 0.30439,2.1525 0.69575,-0.0217 1.8698,-0.91317 0.47832,-0.36961 1.2828,-1.1741 0.80447,-0.80447 1.0219,-1.0002 0.45658,-1.2828 1.261,-2.9569 -0.0652,-0.0435 -0.10871,-0.1522 z m 10.001,-12.154005 q -1.1958,0.0652 -3.4788,3.1961 -2.2829,3.130905 -4.3484,7.131405 1.0871,-1.0436 2.4351,-2.4569 1.348,-1.435 2.783,-3.109105 1.4567,-1.6742 2.2177,-3.0004 0.78272,-1.348 0.39136,-1.7611 z m -25.817,16.502005 q 4.5224,-6.5661 6.1965,-6.914 0.34787,-0.087 0.58704,0.10872 0.17393,0.13045 0.19568,0.47832 0.0217,0.34788 -0.10872,0.86969 -0.13045,0.52181 -0.32613,1.1306 -0.19568,0.58704 -0.47833,1.3698 -0.28264,0.78272 -0.56529,1.5002 -0.26091,0.71749 -0.58704,1.6089 -0.32613,0.86969 -0.54356,1.5654 -0.58704,1.8481 0.13046,1.7176 0.8262,-0.15219 2.783,-2.5438 1.0219,-1.2828 2.0872,-2.8047 1.0871,-1.522 1.348,-1.9568 0.10871,-0.17394 0.30439,-0.0652 0.17394,0.087 0.0652,0.28265 -1.2828,2.1525 -3.1744,4.5006 -3.2178,4.0223 -4.1528,2.7613 -0.30439,-0.39136 -0.34787,-1.0654 -0.0435,-0.674 0.17394,-1.5654 0.21742,-0.91317 0.43484,-1.6742 0.23916,-0.78272 0.67401,-1.8481 0.45658,-1.0871 0.674,-1.5654 0.21743,-0.50007 0.58704,-1.3045 0.78272,-1.7394 -0.8262,-0.41311 -0.80446,0.67401 -1.9568,2.196 -1.1523,1.522 -2.2829,3.2178 -1.1306,1.6742 -1.4785,2.109 l -0.0218,0.0652 q -0.0217,0.0652 -0.087,0.30439 -0.3044,0.30439 -0.84795,0.0217 0.087,-1.3263 0.80446,-3.2396 0.69575,-1.9133 1.3045,-3.1526 0.60878,-1.2393 0.5653,-1.2393 0,0 0.28265,-0.36961 0.2609,-0.28265 0.34787,0.0652 0.0217,0.28265 0.0435,0.45659 0.0435,0.15219 -0.087,0.60878 -0.10871,0.45658 -0.21742,0.76098 -0.087,0.28264 -0.30439,0.86968 -0.19568,0.5653 -0.36962,0.9784 -0.1522,0.39136 -0.4131,1.0436 -0.23917,0.65226 -0.41311,1.1306 z m -6.6042,-0.26091 q -2.3264,2.7178 -3.544,2.3916 -1.348,-0.36961 -1.0219,-2.7178 0.30439,-2.2612 1.7394,-4.4354 1.435,-2.196 2.783,-2.196 0.28265,0 0.52181,0.10872 0.82621,0.32613 1.522,2.0003 0.47832,-0.93492 1.0654,-2.022 0.17394,-0.15219 0.4131,-0.087 0.26091,0.0652 0.43485,0.28265 0.19568,0.21742 0.0652,0.36962 -0.71749,0.91317 -2.0655,3.9136 -1.3263,2.9787 -1.6524,4.6963 -0.13045,0.52182 -0.0652,0.76098 0.0652,0.23916 0.17394,0.32613 0.10871,0.10871 0.34788,0 0.23916,-0.087 0.45658,-0.21742 0.21742,-0.13045 0.52182,-0.36962 1.1306,-0.89142 2.87,-3.2178 1.7611,-2.3482 2.3916,-3.37 0.10871,-0.19568 0.28265,-0.0652 0.21742,0.087 0.087,0.28264 -0.10871,0.19568 -0.32613,0.50007 -0.19568,0.3044 -0.54356,0.82621 -0.34787,0.50007 -0.73923,1.0436 -0.36962,0.52182 -0.84795,1.1523 -0.45658,0.60878 -0.93491,1.1741 -0.47833,0.56529 -0.9784,1.1088 -0.47833,0.52181 -0.93491,0.89143 -0.45659,0.36961 -0.84795,0.60878 -0.39136,0.23916 -0.73923,0.21742 -0.32613,0 -0.54356,-0.28265 -0.71749,-0.91317 0.10871,-3.6744 z m 1.7394,-4.3267 q -0.23916,-0.67401 -0.63052,-1.261 -0.36962,-0.60878 -0.67401,-0.78272 -0.80446,-0.45658 -2.1742,1.6959 -1.3915,2.1742 -1.9351,4.5006 -0.54355,2.196 0.43484,2.1307 0.02175,0 0.04349,0 0.69575,-0.0652 1.7829,-1.0654 0.47833,-0.43484 1.7611,-1.9785 0.60878,-1.6524 1.3915,-3.2396 z m -6.86,-8.675105 q 0.71749,0.15219 0.71749,0.36961 -0.47833,0.84795 -2.2394,6.892305 -1.7394,6.0226 -2.2394,7.2836 0.73924,-1.0654 3.5222,-5.4356 2.783,-4.3702 3.1091,-4.8268 1.5002,-2.130705 2.2829,-2.913505 1.8046,-1.7394 3.6092,-1.435 1.0436,0.19568 1.6307,2.109 0.0435,0.2174205 -0.1522,0.2609105 -0.21742,0.043501 -0.26091,-0.1522005 -0.43484,-1.435 -1.0871,-1.7394 -0.65227,-0.30439 -2.1307,0.30439 -1.8698,0.80446 -6.6966,8.675105 -0.17394,0.26091 -0.23916,0.36962 -0.06523,0.13045 -0.84795,1.4132 -0.78272,1.261 -1.7829,2.696 -0.9784,1.435 -1.2828,1.5654 -0.08697,0.0435 -0.15219,-0.0217 -0.04348,-0.0652 -0.06523,-0.21743 -0.1522,-0.93491 0.89143,-4.892 1.0654,-3.9788 2.2612,-7.0445 -9.871001,13.263 -14.241001,12.023 -0.52181,-0.15219 -0.95666,-0.50007 -1.3698,-1.1306 0.1522,-3.6527 1.2176,-2.0003 3.3266,-3.5657 2.1525,-1.5872 3.1744,-1.1523 0.30439,0.13045 0.45659,0.43484 0.21742,0.47833 -0.10871,1.1306 -0.30439,0.65226 -0.9784,1.3045 -0.67401,0.65226 -1.2176,1.1088 -0.52181,0.43484 -1.0219,0.78272 -0.13045,0.0652 -0.21742,-0.0435 -0.13045,-0.13046 0.04348,-0.21743 3.7179,-2.6308 2.9569,-3.8701 -0.47833,-0.78271 -2.3482,0.43485 -1.8698,1.2393 -3.2831,3.1526 -1.8046,2.4786 -0.91317,3.6744 0.10871,0.10871 0.21742,0.21743 0.9784,0.65226 2.3047,0.2609 1.348,-0.39136 2.9352,-1.5872 1.5872,-1.2176 3.1744,-2.8047 1.5872,-1.5871 3.0439,-3.3266 1.478501,-1.7611 2.565601,-3.2396 1.1089,-1.478504 1.7176,-2.456905 0.60878,-1.0001 0.47833,-1.0654 -0.58704,-0.10871 -1.3045,-0.0652 -0.71749,0.0435 -1.8481,0.28265 -1.1306,0.23916 -1.978501,0.45659 -0.8262,0.19567 -1.6959,0.43484 -0.84795,0.21742 -1.0001,0.26091 -1.3698,0.28264 -2.9135,0.32613 -1.5437,0.0217 -3.1961,-0.21742 -1.6307,-0.26091 -2.87,-1.1306 -1.261,-0.89143 -1.6524,-2.3047 -0.17394,-0.65226 -0.10871,-1.4132 0.04348,-0.63052 0.34788,-0.67401 0.23916,-0.0435 0.32613,0.21742 0.10871,0.36962 -0.4131,0.50007 -0.06523,1.2176 0.45659,2.109 0.52181,0.89142 1.4132,1.348 0.89143,0.45659 2.022,0.76098 1.1089,0.28265 2.2177,0.2609 1.1306,-0.0217 2.109,-0.0435 0.84794,-0.0652 4.7181,-0.86969 3.870101,-0.80446 5.261601,-0.54355 z"/>
 <path class="L1" clip-path="url(#letterclip)" transform="translate(-56.766 -125.01)" fill="none" stroke-linecap="round" stroke-linejoin="bevel" stroke-width="1.1113" d="m78.736 127.96-.28348 2.3624s.56696 1.2757.66146 1.5119c.09449.23624 1.3702 1.1812 1.3702 1.1812l2.5041.94494 5.1972-.0945s4.6775-1.1339 4.9609-1.0867c.28348.0472 3.26-.28348 3.26-.28348l.76692-.15083-.90916 1.3697-1.3137 2.027-4.7806 6.4871-6.2366 5.1499-2.4568.0945-1.4647-.94495s0-1.7481.14174-1.9371c.14174-.18899 1.2757-2.1261 1.2757-2.1261l1.6297-1.6153 1.7373-1.2027s1.0691-.63476 1.2194-.63476.68488-.0501.83522 0 .41761.20045.4009.3842c-.01669.18375-.01669 1.1359-.11693 1.2361-.10022.10023-1.353 1.4533-1.353 1.4533l-1.1693 1.1025-1.6704 1.186 4.3264-3.4077 3.6582-2.4054 6.214-6.047-1.989 5.7797-.96885 3.433-1.2349 4.2176-.43431 2.0045 1.7038-2.4054 6.3476-9.8222 2.3553-2.4555 1.5702-.73499 1.3698.11693s.45102.31739.50113.40091c.0501.0835.55124 1.186.55124 1.186l.30068.93544-1.5201 3.1404s-1.754 3.4077-1.7874 3.3242c-.0334-.0835.0668-.7851.0668-.7851l-1.0858-1.7206-1.3872-.52475-1.77 1.811-1.3632 2.7684-.62918 2.2752.07136 1.4044.55124.63477 1.2194-.20046 2.2718-2.088 1.4867-2.2217 1.4032-2.7562-2.3052 4.7774-.50113 2.1549-.0835 1.1526.43431.83522.45102.0167 3.4244-3.2908 4.126-6.381-1.0858 3.0736-1.0858 2.4054-1.0858 4.4434 1.0524-3.107 3.6248-4.5102 1.9377-2.2718 1.2194-.60135.25057.95214-.80181 1.9878-1.3029 3.4411-.65147 2.1214.0167 1.4032.56795.58466.66818-.3508 1.4867-1.3363 2.5725-3.1905 1.5368-2.1716 2.2551-2.5725 1.4199-.66817.70158.18375.83522 1.353.56795 1.1192-.71829-1.1192-4.5603 1.1359-1.3364 3.3075-.21715.93545.11693 1.1359.48443.50113 1.1359-.21715 2.3052-1.6036 1.4366-1.5034 1.8041-4.0926 3.2035-5.5605 2.3972-3.5316 2.7876-2.3151.8032.18899-.18898 1.5592-1.2284 1.8899-3.26 3.8742-3.2128 3.26-.89769.33073-2.0789 4.2995-1.0867 3.7325.0472 1.0394.61422.47247 1.0867-.66146 3.5435-3.8743 2.7403-4.1577 1.6536-2.0316h1.2284l1.1339 1.4647.52782 1.194-.85855-1.9027-4.2877 2.2206-1.0985 2.7994-.33073 1.2166.47247 1.4174.47247.33073 1.1119-.18944 2.5056-2.2885 1.72-3.2683 2.0385-3.6974-3.1844 6.388-.80789 2.8829v1.5034l.50113.30068 1.5702-.83522 3.0402-3.7084 2.6059-3.7084"/>
 <path class="L2" clip-path="url(#letterclip)" transform="translate(-56.766 -125.01)" fill="none" stroke-linecap="round" stroke-linejoin="bevel" stroke-width="1.165" d="m78.878 157.68-.25986-1.1103-1.0631-1.3938-1.5119-.42522-3.1656.33073-3.6853 2.1261-2.4805 3.1656-1.3702 2.4805-.47247 1.8663.35435 2.6931.99219 1.4647s1.2284.37797 1.4174.42522c.18899.0472 3.4018-.75595 3.4018-.75595s3.3148-3.0089 3.449-3.1419c.78266-.77599 2.1734-2.9057 2.1734-2.9057l1.252-3.4963-.77958-2.1734-1.7009-.47247-1.7954.8032-2.0789 1.3702-1.0394 1.7954-1.0394 1.7481.04725 1.7009.70871.7087 1.5592-.28348 1.2757-.7087 1.1339 7.087 1.2284.14174.63783-2.8348 1.7718-4.8664 1.1812-2.3624 2.764-4.5594 2.5277-3.5199 2.2206-1.7481.85045-.23623.18899.8032s-.33073.7087-.37798.94494c-.04725.23623-1.8899 2.7876-1.8899 2.7876l-3.0238 3.5435-2.2206 2.1734-1.6536 1.5592-.37798.85044h.33073l1.3229-1.0394 2.1734-1.4174.99219-.42523.8032.56697-.18899 1.0394-2.1261 1.0867-2.2679.8032-.73233.0945 1.1576.47248.33073 1.4646.18899 1.8899-.14174 2.1734.33073.66146s.14174.37797.33073.37797c.18899 0 .75595-.23623.75595-.23623l1.0394-.94494 3.5818-4.95 1.9487-3.9327.56434-.75571-2.3387 4.6775-.34758.99147-.432 2.1505.10631 1.2284.74414.25991 2.4568-2.2206 2.2679-2.6458 3.1656-5.6224 2.5495-4.0251-.57933.30722-1.6384 2.7066-1.6074-.31166-.94494.37798-.89769 1.1812 3.6853-1.1339.94494.14174.66146.28348.66146-.0472.66146-.18899.85045-.99218-4.0189 1.0538-3.3517 6.5058-1.1812 3.7798-.18899 1.4647.33073.7087h.37797l1.6536-.99218 3.3545-4.205 1.7009-2.3151 2.0316-2.8348 1.1812-.0472 1.7954 2.5041-4.8664-.18899-1.2284 3.26-.23623 1.6536.18899 1.1339.8032.66146 1.2757-.8032 2.1261-2.0316 1.8426-3.4963 1.63-3.0002-2.6695 5.457-1.0867 3.5435v1.1812l.23624.51971.89769-.18898 2.1734-1.9371 4.0632-5.3862 1.7954-3.4963-2.3623 6.0476-.66147 2.764.42523.77957 1.7009-1.3229 3.1656-3.2128 2.5513-3.1183 1.5592-2.9293.14175-1.6536-.75596-.51972-.89769.51972-1.1339 1.5592-.75595 3.2128.14174 2.4096.7087 1.1812.85045.42522 1.6064-.7087.75595-.33073 1.6064-.61421 2.1261-1.2284 1.5119-1.5119.0945-1.0394-.99218-.18898-1.8899.8032-2.2206 2.7403-1.3465 2.9293-.0945 1.6064.92132.75595h.89769l2.1734-1.0867 2.5041-2.6458 3.2128-4.5357 1.9844-3.4963.0945-.85045-.80319.0472-.75596.75595-.89769 1.7954.0473 1.0394.61421.85045 1.1812-.0945.94494-.28348.75596-.94494-1.5119 2.4096-2.0316 4.5357-.42522 2.0789-.28348 1.5592.33072.75595.61421-.0945 1.4647-.99219 3.0238-3.5435 2.0789-2.8821 1.1812-2.2678 1.5119-.8977 1.1812.47247.8032 1.5119.51971 1.0394-.94494-1.8426-4.5357 2.3151-.77958 2.0316-.25986.82681-.0944 1.7245.56697.66146.61421.18899 1.2757-.8032 2.0789-1.8426.66145-.85045 3.0711-6.2838-2.9293 5.9531-1.0394 2.7403-.0472 1.7481.18899.8032 1.0867-.18899 2.4568-2.5513 4.1105-5.3389 3.3545-2.8821 3.2128-1.1339 2.8821-.42522 2.6931.89769 1.4647 1.5592.47247 1.1339.0472 1.9371-1.1339 2.5041-2.8821 1.7481-2.3624-.18899-1.5119-.99219-.85044-1.2284.23624-2.4568.51971-.61421.94494-5.1027-59.047.44889-.72046.8539"/>
</svg>
